<?xml version="1.0" encoding="utf-8" ?><svg xmlns="http://www.w3.org/2000/svg" xmlns:xlink="http://www.w3.org/1999/xlink" width="1024" height="1024" viewBox="0 0 1024 1024"><path d="M574.435 238.256C600.054 237.944 625.675 237.979 651.292 238.359C665.582 238.539 681.58 238 695.678 239.094C723.272 241.331 749.652 251.409 771.708 268.141C803.684 292.749 823.717 325.479 828.763 365.934C832.949 397.344 826.197 429.239 809.642 456.259C804.054 465.411 798.465 472.395 791.928 480.818C798.856 485.297 805.937 489.875 812.573 494.769C846.268 519.621 869.189 555.591 875.216 597.292C881.571 640.192 870.404 683.844 844.228 718.422C818.356 753.018 780.843 776.54 737.753 782.879C725.123 784.737 706.562 784.544 693.484 784.533L646.69 784.58L519.532 784.57L486.519 784.682C479.906 784.655 470.021 784.092 463.716 785.17C476.847 765.956 494.007 744.215 508.074 725.345C509.35 723.36 511.266 720.968 512.718 719.051C526.559 700.781 540.116 681.916 554.65 664.206C568.043 663.38 584.945 663.975 598.576 664.017L675.694 664.252C691.112 664.344 707.582 665.054 722.895 663.393C731.297 662.481 740.28 657.721 746.537 652.063C756.121 643.375 761.815 631.203 762.341 618.278C762.95 604.597 759.051 592.676 749.898 582.342C734.288 564.72 709.364 568.7 687.8 568.045C662.731 567.284 636.726 568.93 611.536 567.992C626.193 548.188 640.725 528.292 655.133 508.306C653.158 505.405 651.21 502.194 649.337 499.211C638.463 481.901 626.081 465.168 615.896 447.453C628.201 447.294 640.507 447.213 652.813 447.208C671.218 447.143 691.037 449.22 705.442 435.464C713.993 427.454 718.92 416.312 719.092 404.597C719.261 392.194 714.578 380.429 705.955 371.511C694.46 359.622 680.617 359.208 665.116 359.092C655.971 359.023 646.713 359.019 637.512 359.029L550.423 359.47C543.776 350.915 536.594 340.299 530.362 331.345L494.978 280.01L477.393 254.814C474.312 250.393 468.839 242.946 466.77 238.369L574.435 238.256Z"/><path d="M335.318 237.214C346.246 236.491 358.886 238.508 370.447 237.911C338.014 247.903 318.721 257.648 296.338 285.013C273.637 312.766 261.811 349.935 265.657 385.747C267.253 399.442 272.967 412.332 282.044 422.711C312.952 458.583 345.352 444.114 384.599 451.751C411.023 456.995 435.787 468.548 456.782 485.426C492.089 513.371 514.543 554.449 519.004 599.255C523.698 643.165 508.275 690.048 480.125 723.664C445.726 764.744 402.113 781.038 350.612 786.453C335.578 786.905 316.232 785.248 302.533 786.264C309.565 783.862 317.272 782.473 324.538 779.867C344.181 772.655 362.501 759.184 376.227 743.449C414.474 699.604 439.671 618.525 381.664 579.244C356.208 562.005 330.999 572.011 302.973 566.799C275.178 561.658 249.33 548.978 228.253 530.144C193.657 499.598 175.247 459.158 172.446 413.302C170.046 369.399 185.15 326.334 214.447 293.547C245.519 258.748 289.12 239.94 335.318 237.214Z"/><path d="M403.835 238.218C407.306 237.517 416.091 238.648 419.528 239.21C430.989 241.083 442.707 246.893 450.928 255.197C459.374 263.728 466.936 275.388 473.972 285.393L502.256 325.339C545.609 385.53 588.259 446.224 630.196 507.409C627.449 510.976 624.262 515.965 621.612 519.746L600.131 550.527L538.481 638.635C540.01 631.564 540.638 619.972 541.014 612.691C541.194 577.742 533.693 547.346 515.556 517.016C508.358 504.978 500.494 494.464 492.428 483.01L455.554 430.153L427.18 389.46C419.051 377.782 410.983 362.402 396.491 358.181C388.804 355.941 381.062 356.562 373.148 356.477C360.904 356.288 348.658 356.271 336.414 356.426C319.878 356.521 303.355 356.111 286.788 356.086C288.261 332.505 304.974 300.89 320.399 283.225C342.904 257.45 369.251 240.79 403.835 238.218Z"/><path d="M178.094 534.916C180.789 537.43 195.075 559.2 197.744 563.208C210.069 581.612 222.513 599.936 235.075 618.178C242.055 628.487 253.937 647.071 262.098 656.065C265.692 659.992 270.382 662.75 275.562 663.98C283.484 665.866 304.979 665.088 314.098 665.245C340.639 665.702 367.837 664.854 394.348 665.932C392.479 673.231 391.286 679.706 388.698 686.939C378.454 715.571 360.466 738.522 337.232 757.582C295.86 792.242 238.158 795.266 198.531 757.208C170.754 730.53 154.61 697.348 150.178 659.346C146.328 624.759 151.54 589.765 165.304 557.801C168.616 550.194 172.981 541.37 178.094 534.916Z"/><path d="M300.531 282.236C302.048 283.062 301.736 282.502 302.18 283.685C299.992 284.36 300.287 283.884 299.36 285.38L299.865 286.872C298.993 287.357 299.507 287.168 298.28 287.305C297.908 284.979 298.821 283.552 300.531 282.236Z"/></svg>