<?xml version="1.0" encoding="utf-8" ?><svg xmlns="http://www.w3.org/2000/svg" xmlns:xlink="http://www.w3.org/1999/xlink" width="24" height="24" viewBox="0 0 24 24"><path fill="white" transform="scale(0.0234375 0.0234375)" d="M0 0L1024 0L1024 1024L0 1024L0 0Z"/><path transform="scale(0.0234375 0.0234375)" d="M466.656 238.231C531.261 239.198 596.263 237.327 660.916 238.329C679.282 238.614 695.276 237.589 713.586 241.48C736.938 246.545 758.743 257.114 777.185 272.309C807.121 296.752 826.001 332.183 829.596 370.664C832.643 401.474 825.271 432.417 808.659 458.543C803.258 467.048 798.151 473.18 791.754 480.897C806.962 490.58 817.999 497.418 831.035 510.169C860.571 539.281 877.256 578.984 877.385 620.455C877.74 663.526 858.993 706.415 828.75 736.835C807.351 758.298 780.428 773.417 750.963 780.517C730.595 785.42 712.796 784.724 692.073 784.777L643.463 784.849L472.532 784.829L463.525 784.912C466.976 780.098 470.685 775.255 474.273 770.523C500.999 735.267 527.008 698.938 554.514 664.316C566.243 663.599 584.181 664.069 596.251 664.063L678.052 664.205C688.14 664.226 716.095 664.892 724.653 663.111C733.389 661.334 741.424 657.067 747.789 650.825C757.043 641.828 762.307 629.497 762.403 616.59C762.545 602.559 757.902 590.754 748.159 580.683C736.339 568.466 721.677 568.521 705.7 568.569C697.85 568.593 689.756 568.548 681.817 568.541L610.708 568.467C617.803 559.651 624.702 549.818 631.451 540.659C639.289 530.021 647.425 519.341 654.915 508.492C650.95 500.789 640.487 485.924 635.175 478.031C628.449 467.877 621.898 457.607 615.525 447.227C628.052 446.922 640.657 447.24 653.247 447.065C673.209 446.748 690.984 449.927 706.556 434.39C732.807 408.197 715.643 361.017 678.039 359.601C665.469 359.127 652.737 359.403 640.16 359.406L550.14 359.51C528.417 328.825 506.99 297.931 485.861 266.834C483.189 262.94 467.32 241.047 466.656 238.231Z"/><path transform="scale(0.0234375 0.0234375)" d="M332.005 237.21C342.234 236.336 359.443 237.69 370.094 238.265C339.872 246.024 316.917 260.349 296.946 284.636C273.422 312.972 262.255 349.564 265.95 386.206C269.326 418.574 299.542 446.334 331.998 448.122C351.747 449.21 366.897 448.004 386.781 452.148C412.8 457.657 437.127 469.303 457.736 486.114C492.311 513.977 514.46 554.386 519.35 598.52C523.791 642.291 509.082 689.293 481.064 723.006C447.557 763.323 402.904 781.292 352.149 786.441C338.04 787.124 316.991 786.9 302.833 785.772C309.178 784.126 315.439 783.008 321.718 780.935C342.753 773.992 364.409 757.943 378.578 740.759C407.742 705.386 430.182 646.597 405.111 603.635C395.046 586.489 375.382 571.362 355.234 569.466C337.76 567.821 319.598 570.388 302.158 566.788C274.653 561.456 251.741 550.27 230.419 532.184C196.93 503.743 176.191 463.101 172.815 419.294C165.257 322.695 236.01 244.126 332.005 237.21Z"/><path transform="scale(0.0234375 0.0234375)" d="M401.507 238.204C407.967 237.691 414.467 238.053 420.83 239.281C432.489 241.583 443.215 247.262 451.671 255.613C458.435 262.396 467.875 276.769 473.753 285.029C485.793 301.744 497.737 318.529 509.585 335.382C550.417 392.354 590.703 449.716 630.436 507.46C626.872 511.563 623.203 517.647 620.008 522.229C613.278 531.715 606.619 541.25 600.03 550.834L538.364 638.838C539.952 630.404 540.356 623.146 540.885 614.615L540.929 613.406C542.026 578.439 532.376 543.661 513.689 514.164C506.179 502.308 497.986 491.094 489.907 479.628L453.753 427.607L426.502 388.712C413.546 370.053 407.494 355.858 381.771 356.574C372.262 356.838 361.524 356.621 351.887 356.667C330.03 356.836 308.172 356.737 286.318 356.372C288.666 332.319 304.83 300.834 320.612 282.558C341.5 258.368 369.444 241.067 401.507 238.204Z"/><path transform="scale(0.0234375 0.0234375)" d="M178.167 534.811C181.472 538.251 194.691 558.451 197.937 563.299C210.678 582.324 223.639 601.072 236.568 620.03C244.657 631.892 253.588 646.013 262.867 656.813C265.617 660.015 273.184 663.889 277.161 664.341C287.386 665.503 299.995 665.192 310.475 665.293L394.427 665.509C388.613 701.611 365.547 735.321 337.259 757.85C286.699 797.811 225.383 794.061 185.105 742.808C163.861 715.777 153.166 690.046 149.701 655.871C146.522 622.46 151.871 588.789 165.248 558.008C168.215 551.13 173.492 540.554 178.167 534.811Z"/></svg>